<?xml version="1.0" encoding="iso-8859-1"?>
<!-- Generator: Adobe Illustrator 19.0.0, SVG Export Plug-In . SVG Version: 6.00 Build 0)  -->
<svg version="1.1" id="Capa_1" xmlns="http://www.w3.org/2000/svg" xmlns:xlink="http://www.w3.org/1999/xlink" x="0px" y="0px"
	 viewBox="0 0 336.287 336.287" style="enable-background:new 0 0 336.287 336.287;" xml:space="preserve">
<g>
	<g>
		<path d="M309.197,104.076l-72.68-16.72l-38.08-63.28l-0.24-0.36c-2.939-5.009-7.08-9.205-12.049-12.21
			c-16.503-9.98-37.971-4.692-47.951,11.81l-38.4,64l-72.4,16.76h-0.32l-0.8,0.24c-5.259,1.339-10.133,3.885-14.234,7.438
			c-14.56,12.613-16.139,34.641-3.526,49.202l48.88,56.32l-6.56,74.6c-0.041,0.466-0.041,0.934,0,1.4c-0.1,2.341,0.034,4.686,0.4,7
			c0.453,2.749,1.232,5.435,2.32,8c0.013,0.03,0.026,0.061,0.038,0.091c7.482,17.704,27.898,25.99,45.602,18.509l68.8-29.16l66,28
			c5.943,3.143,12.658,4.53,19.36,4c19.191-1.635,33.475-18.436,32-37.64v-0.32l-6.56-74.52l48-55.16
			c4.23-4.502,7.191-10.043,8.583-16.061C339.731,127.203,328.008,108.426,309.197,104.076z M317.917,147.036
			c-0.79,1.458-1.772,2.803-2.92,4l-0.44,0.48l-50.16,57.8c-1.423,1.643-2.116,3.795-1.92,5.96l6.72,77.88c0,0.12,0,0.4,0,0.4
			c0.716,10.195-6.86,19.088-17.04,20h-0.24c-3.547,0.315-7.109-0.422-10.24-2.12c-0.41-0.224-0.838-0.411-1.28-0.56l-69.24-29.2
			c-1.994-0.845-4.246-0.845-6.24,0l-71.28,30.2c-0.427,0.138-0.842,0.312-1.24,0.52c-9.233,3.519-19.614-0.711-23.76-9.68
			c-0.131-0.385-0.292-0.759-0.48-1.12c-0.464-1.215-0.799-2.475-1-3.76c-0.183-1.501-0.183-3.019,0-4.52
			c0.032-0.413,0.032-0.827,0-1.24l6.64-76.8c0.22-2.392-0.646-4.757-2.36-6.44l-50.72-58.56c-1.991-2.305-3.392-5.058-4.083-8.024
			c-2.356-10.112,3.931-20.22,14.043-22.576h0.48l75.72-17.48c2.255-0.508,4.181-1.966,5.28-4l40-66.52
			c1.587-2.645,3.801-4.859,6.446-6.446c8.903-5.343,20.451-2.457,25.794,6.446l0.24,0.4l39.8,66.4v0.04
			c1.123,1.891,2.975,3.236,5.12,3.72l76,17.6c1.626,0.374,3.195,0.962,4.666,1.75C319.375,126.489,322.82,137.883,317.917,147.036z
			"/>
	</g>
</g>
<g>
</g>
<g>
</g>
<g>
</g>
<g>
</g>
<g>
</g>
<g>
</g>
<g>
</g>
<g>
</g>
<g>
</g>
<g>
</g>
<g>
</g>
<g>
</g>
<g>
</g>
<g>
</g>
<g>
</g>
</svg>
